<?xml version="1.0" encoding="utf-8"?><svg version="1.1" id="Layer_1" xmlns="http://www.w3.org/2000/svg" xmlns:xlink="http://www.w3.org/1999/xlink" x="0px" y="0px" viewBox="0 0 1280 700" style="enable-background:new 0 0 1280 700;" xml:space="preserve"><style type="text/css">.st0{clip-path:url(#SVGID_2_);}.st1{fill:#082F4F;}.st2{fill:#072E4F;stroke:#0A3F6A;}.st3{fill:#072A46;stroke:#0A3F6A;}.st4{fill:#072D4C;stroke:#0A3F6A;}.st5{fill:#072A47;stroke:#0A3F6A;}.st6{fill:#072D4D;stroke:#0A3F6A;}.st7{fill:#072C4B;stroke:#0A3F6A;}.st8{fill:#082E4F;stroke:#0A3F6A;}.st9{fill:#072846;stroke:#0A3F6A;}.st10{opacity:9.000000e-02;fill:url(#Rectangle-8-Copy_1_);enable-background:new    ;}.st11{opacity:0.3;fill:url(#Rectangle-8-Copy-4_1_);enable-background:new    ;}</style><title>bg-home</title><g><defs><rect id="SVGID_1_" x="-9.4" y="-5" width="1299.4" height="711.6"/></defs><clipPath id="SVGID_2_"><use xlink:href="#SVGID_1_"  style="overflow:visible;"/></clipPath><g id="SB-Website" class="st0"><g id="Homepage"><g id="Hero-6-Copy"><g id="Rectangle-8-Copy-_-Rectangle-8-Copy-4-Mask"><g id="Mask-4"><rect id="path-1-4" x="-21.9" y="-13.2" class="st1" width="1323.5" height="724.8"/></g><g><g id="Small-BG"><g id="Group-8-Copy"><polygon id="Shape" class="st2" points="1303.7,94.1 1297.3,57.1 1262.1,44.4 1233.3,68.5 1239.7,105.5 1274.9,118.2 "/></g><g id="Group-8-Copy-5"><polygon id="Shape-2" class="st3" points="1192.9,398.8 1186.5,361.9 1151.3,349.1 1122.5,373.3 1129,410.2 1164.2,423 "/></g><g id="Group-8-Copy-46"><polygon id="Shape-3" class="st4" points="1214.5,338.1 1208.1,301.2 1172.9,288.4 1144.1,312.6 1150.6,349.5 1185.7,362.3 "/></g><g id="Group-8-Copy-48"><polygon id="Shape-4" class="st2" points="1278.3,325.4 1271.9,288.5 1236.7,275.7 1207.9,299.9 1214.3,336.8 1249.5,349.6 "/></g><g id="Group-8-Copy-27"><polygon id="Shape-5" class="st5" points="851.6,516.4 845.2,479.5 810,466.8 781.2,490.9 787.6,527.9 822.8,540.6 "/></g><g id="Group-8-Copy-32"><polygon id="Shape-6" class="st4" points="682.4,490.1 675.9,453.2 640.7,440.5 612,464.6 618.4,501.6 653.6,514.3 "/></g><g id="Group-8-Copy-29"><polygon id="Shape-7" class="st5" points="596.3,562.3 589.8,525.4 554.6,512.6 525.9,536.8 532.3,573.7 567.5,586.5 "/></g><g id="Group-8-Copy-26"><polygon id="Shape-8" class="st4" points="765.7,589.1 759.3,552.2 724.1,539.4 695.3,563.6 701.8,600.5 737,613.3 "/></g><g id="Group-8-Copy-15"><polygon id="Shape-9" class="st4" points="849.1,688.1 842.7,651.2 807.5,638.4 778.7,662.6 785.1,699.5 820.3,712.3 "/></g><g id="Group-8-Copy-41"><polygon id="Shape-10" class="st3" points="871.5,627.9 865,590.9 829.8,578.2 801.1,602.4 807.5,639.3 842.7,652 "/></g><g id="Group-8-Copy-25"><polygon id="Shape-11" class="st3" points="854.5,344.9 848.1,308 812.9,295.2 784.1,319.4 790.5,356.3 825.7,369.1 "/></g><g id="Group-8-Copy-24"><polygon id="Shape-12" class="st3" points="940.2,272.6 933.8,235.7 898.6,222.9 869.8,247.1 876.3,284.1 911.5,296.8 "/></g><g id="Group-8-Copy-43"><polygon id="Shape-13" class="st4" points="918.1,333.8 911.7,296.9 876.5,284.1 847.7,308.3 854.1,345.2 889.4,358 "/></g><g id="Group-8-Copy-57"><polygon id="Shape-14" class="st3" points="1176.5,117.4 1170.1,80.4 1134.9,67.7 1106.1,91.9 1112.6,128.8 1147.8,141.5 "/></g><g id="Group-8-Copy-56"><polygon id="Shape-15" class="st3" points="1134.8,67.8 1128.4,30.8 1093.1,18.1 1064.4,42.2 1070.8,79.2 1106,91.9 "/></g><g id="Group-8-Copy-55"><polygon id="Shape-16" class="st4" points="1112.7,128.6 1106.2,91.7 1071,78.9 1042.3,103.1 1048.7,140 1083.9,152.8 "/></g><g id="Group-8-Copy-14"><polygon id="Shape-17" class="st3" points="1064.9,421.6 1058.4,384.7 1023.2,371.9 994.5,396.1 1000.9,433 1036.1,445.8 "/></g><g id="Group-8-Copy-44"><polygon id="Shape-18" class="st6" points="1023.6,372.2 1017.1,335.3 981.9,322.5 953.2,346.7 959.6,383.6 994.8,396.4 "/></g><g id="Group-8-Copy-54"><polygon id="Shape-19" class="st7" points="1068.3,249.7 1061.9,212.8 1026.7,200 997.9,224.2 1004.4,261.2 1039.6,273.9 "/></g><g id="Group-8-Copy-11"><polygon id="Shape-20" class="st8" points="1109.6,299.8 1103.1,262.9 1067.9,250.2 1039.1,274.3 1045.6,311.3 1080.8,324 "/></g><g id="Group-8-Copy-49"><polygon id="Shape-21" class="st3" points="1236.9,276.5 1230.5,239.5 1195.3,226.8 1166.5,250.9 1173,287.9 1208.2,300.6 "/></g><g id="Group-8-Copy-50"><polygon id="Shape-22" class="st2" points="1259,215.7 1252.6,178.8 1217.4,166 1188.6,190.2 1195,227.1 1230.2,239.9 "/></g><g id="Group-8-Copy-51"><polygon id="Shape-23" class="st3" points="1281.1,155 1274.7,118.1 1239.4,105.3 1210.7,129.5 1217.1,166.4 1252.3,179.2 "/></g><g id="Group-8-Copy-47"><polygon id="Shape-24" class="st4" points="1301.3,265 1294.9,228.1 1259.7,215.3 1230.9,239.5 1237.4,276.4 1272.6,289.2 "/></g><g id="Group-8-Copy-10"><polygon id="Shape-25" class="st3" points="1195.4,227.2 1189,190.2 1153.8,177.5 1125,201.7 1131.5,238.6 1166.7,251.3 "/></g><g id="Group-8-Copy-52"><polygon id="Shape-26" class="st3" points="1153.7,177.3 1147.2,140.4 1112,127.6 1083.2,151.8 1089.7,188.7 1124.9,201.5 "/></g><g id="Group-8-Copy-45"><polygon id="Shape-27" class="st5" points="1173.5,288.2 1167,251.3 1131.8,238.6 1103.1,262.7 1109.5,299.7 1144.7,312.4 "/></g><g id="Group-8-Copy-20"><polygon id="Shape-28" class="st3" points="959.9,383.3 953.4,346.4 918.2,333.7 889.5,357.8 895.9,394.8 931.1,407.5 "/></g><g id="Group-8-Copy-21"><polygon id="Shape-29" class="st3" points="935.2,615.9 928.8,579 893.6,566.3 864.8,590.4 871.2,627.4 906.4,640.1 "/></g><g id="Group-8-Copy-22"><polygon id="Shape-30" class="st4" points="957.5,554.6 951.1,517.7 915.9,504.9 887.1,529.1 893.5,566 928.7,578.8 "/></g><g id="Group-8-Copy-28"><polygon id="Shape-31" class="st5" points="787.9,528.2 781.5,491.2 746.3,478.5 717.5,502.7 723.9,539.6 759.1,552.3 "/></g><g id="Group-8-Copy-38"><polygon id="Shape-32" class="st2" points="1189.2,569.1 1182.7,532.1 1147.5,519.4 1118.8,543.6 1125.2,580.5 1160.4,593.2 "/></g><g id="Group-8-Copy-30"><polygon id="Shape-33" class="st5" points="701.8,600.3 695.3,563.4 660.1,550.6 631.4,574.8 637.8,611.7 673,624.5 "/></g><g id="Group-8-Copy-31"><polygon id="Shape-34" class="st4" points="660.2,551.1 653.8,514.2 618.6,501.4 589.8,525.6 596.2,562.5 631.4,575.3 "/></g><g id="Group-8-Copy-17"><polygon id="Shape-35" class="st4" points="893.4,566.2 887,529.3 851.8,516.5 823,540.7 829.4,577.6 864.6,590.4 "/></g><g id="Group-8-Copy-18"><polygon id="Shape-36" class="st3" points="915.6,505.2 909.1,468.3 873.9,455.6 845.2,479.7 851.6,516.7 886.8,529.4 "/></g><g id="Group-8-Copy-42"><polygon id="Shape-37" class="st4" points="938,444.7 931.6,407.8 896.4,395.1 867.6,419.2 874.1,456.1 909.3,468.9 "/></g><g id="Group-8-Copy-36"><polygon id="Shape-38" class="st5" points="977.2,665.4 970.8,628.4 935.6,615.7 906.8,639.8 913.3,676.8 948.5,689.5 "/></g><g id="Group-8-Copy-35"><polygon id="Shape-39" class="st2" points="1041.3,654.8 1034.9,617.9 999.7,605.2 970.9,629.3 977.3,666.3 1012.5,679 "/></g><g id="Group-8-Copy-34"><polygon id="Shape-40" class="st5" points="1062.4,593.8 1056,556.8 1020.8,544.1 992,568.3 998.5,605.2 1033.7,618 "/></g><g id="Group-8-Copy-33"><polygon id="Shape-41" class="st2" points="1021.4,543.9 1015,507 979.7,494.2 951,518.4 957.4,555.3 992.6,568.1 "/></g><g id="Group-8-Copy-13"><polygon id="Shape-42" class="st9" points="1045.6,311 1039.2,274.1 1004,261.4 975.2,285.5 981.6,322.5 1016.8,335.2 "/></g><g id="Group-8-Copy-37"><polygon id="Shape-43" class="st5" points="1125.7,580.9 1119.3,543.9 1084.1,531.2 1055.3,555.3 1061.7,592.3 1096.9,605 "/></g><g id="Group-9"><polygon id="Shape-44" class="st4" points="1262.8,44.6 1256.4,7.7 1221.2,-5 1192.4,19.1 1198.9,56.1 1234.1,68.8 "/></g><g id="Group-8-Copy-39"><polygon id="Shape-45" class="st5" points="1326.5,32.9 1320.1,-4 1284.9,-16.8 1256.1,7.4 1262.5,44.3 1297.7,57.1 "/></g></g></g><g><linearGradient id="Rectangle-8-Copy_1_" gradientUnits="userSpaceOnUse" x1="-178.5722" y1="-39.5617" x2="-178.5722" y2="-38.5252" gradientTransform="matrix(1436.1785 -1773.5327 615.8571 498.7112 281169.5312 -296308.5312)"><stop  offset="0" style="stop-color:#1163A7"/><stop  offset="1" style="stop-color:#082F4F"/></linearGradient><path id="Rectangle-8-Copy" class="st10" d="M-384.4,1574.8L1081.1-237.4c5.4-6.7,15.2-7.7,21.8-2.3l612.7,496.8c6.7,5.4,7.7,15.2,2.3,21.8L252.4,2091.2c-5.4,6.7-15.2,7.7-21.8,2.3l-612.7-496.8C-388.8,1591.2-389.8,1581.5-384.4,1574.8z"/></g><g><linearGradient id="Rectangle-8-Copy-4_1_" gradientUnits="userSpaceOnUse" x1="-178.5998" y1="-39.4977" x2="-178.5998" y2="-38.4616" gradientTransform="matrix(959.1094 -1184.4016 522.3742 423.0103 192144.4844 -194708.5938)"><stop  offset="0" style="stop-color:#0C4A7D"/><stop  offset="1" style="stop-color:#082F4F"/></linearGradient><polygon id="Rectangle-8-Copy-4" class="st11" points="-281.5,729.6 710.2,-496.8 1250.4,-58.8 258.7,1167.6 "/></g></g></g></g></g></g></svg>